<?xml version="1.0" encoding="utf-8"?>
<!-- Generator: Adobe Illustrator 29.0.0, SVG Export Plug-In . SVG Version: 9.03 Build 54978)  -->
<svg version="1.1" id="Layer_1" xmlns="http://www.w3.org/2000/svg" xmlns:xlink="http://www.w3.org/1999/xlink" x="0px" y="0px"
	 viewBox="0 0 372.153 367.218" style="enable-background:new 0 0 372.153 367.218;" xml:space="preserve">
<g>
	<path style="fill:#00A651;" d="M222.845,357.218c-25.042,0-49.764,0-74.337,0c1.642-1.721,3.184-3.707,5.109-5.198
		c0.959-0.743,2.4-1.131,2.963-2.231c1.546-3.023,4.398-4.788,6.56-7.206c0.419-0.469,1.18-0.616,1.661-1.047
		c0.899-0.805,1.732-1.69,2.545-2.584c0.337-0.37,0.468-0.953,0.84-1.261c0.981-0.812,1.261-1.775,1.255-3.041
		c-0.051-9.76-0.049-19.52-0.001-29.279c0.006-1.216-0.347-1.58-1.552-1.571c-6.6,0.048-13.2-0.001-19.799,0.045
		c-1.132,0.008-1.515-0.289-1.508-1.471c0.047-8.24,0.026-16.48,0.024-24.719c0-1.638-0.029-1.669-1.683-1.67
		c-6.52-0.004-13.04-0.03-19.559,0.024c-1.191,0.01-1.584-0.291-1.576-1.534c0.053-8.079,0.008-16.16,0.049-24.239
		c0.005-1.081-0.272-1.433-1.395-1.425c-6.84,0.049-13.68,0.004-20.519,0.046c-1.088,0.007-1.448-0.294-1.442-1.417
		c0.043-8.08,0.024-16.16,0.022-24.239c-0.001-1.723-0.007-1.726-1.706-1.726c-6.32-0.001-12.64,0-18.96-0.001
		c-1.622,0-1.624-0.003-1.624-1.671c-0.001-7.76,0.005-15.52-0.004-23.28c-0.003-2.336,0.282-2.157-2.22-2.159
		c-6.4-0.005-12.8-0.026-19.199,0.021c-1.109,0.008-1.433-0.326-1.428-1.429c0.041-8.04,0.023-16.08,0.021-24.119
		c0-1.832-0.005-1.834-1.88-1.834c-6.4-0.001-12.8-0.028-19.199,0.024c-1.167,0.01-1.487-0.346-1.481-1.494
		c0.044-8.4,0.025-16.8,0.022-25.199c0-1.644-0.007-1.65-1.678-1.65c-6.56-0.002-13.12-0.027-19.679,0.023
		c-1.162,0.009-1.489-0.342-1.486-1.493c0.035-14.32,0.033-28.639,0.002-42.959c-0.002-1.089,0.295-1.45,1.417-1.442
		c6.4,0.048,12.8,0.024,19.199,0.023c1.744,0,1.746-0.003,1.747-1.797c0.001-8.12,0.023-16.24-0.024-24.359
		c-0.007-1.177,0.364-1.481,1.502-1.473c6.48,0.048,12.96,0.025,19.439,0.022c1.576-0.001,1.618-0.038,1.619-1.613
		c0.004-8,0.027-16-0.024-23.999c-0.008-1.217,0.338-1.566,1.555-1.555c6.519,0.056,13.04,0.028,19.559,0.025
		c1.739-0.001,1.741-0.006,1.742-1.691c0.001-8.28,0.024-16.56-0.026-24.839C77.7,10.337,78.04,9.995,79.26,10
		c11,0.045,22,0.043,32.999,0.003c1.155-0.004,1.5,0.328,1.494,1.486c-0.044,8.32-0.024,16.64-0.023,24.959
		c0,1.625,0.004,1.633,1.678,1.634c6.4,0.003,12.8,0.027,19.199-0.022c1.151-0.009,1.502,0.328,1.496,1.489
		c-0.045,8-0.025,16-0.022,23.999c0.001,1.649,0.032,1.676,1.676,1.677c6.52,0.002,13.04,0,19.56,0.002
		c1.559,0,1.562,0.003,1.562,1.608c0.001,8.08-0.001,16.16,0.002,24.24c0.001,1.754,0.007,1.757,1.694,1.757
		c16.96,0.001,33.919,0.001,50.879,0c1.625,0,1.63-0.004,1.631-1.672c0.002-8.16,0.023-16.32-0.024-24.479
		c-0.007-1.171,0.353-1.486,1.498-1.477c6.6,0.049,13.2-0.004,19.799,0.048c1.206,0.01,1.568-0.334,1.56-1.556
		c-0.051-8.04-0.007-16.08-0.048-24.119c-0.006-1.123,0.274-1.528,1.464-1.518c6.319,0.054,12.64,0.023,18.959,0.029
		c0.767,0.001,1.534,0.052,2.3,0.081c-0.057-0.739-0.162-1.477-0.163-2.216c-0.012-8.16,0.015-16.32-0.032-24.479
		c-0.007-1.181,0.378-1.473,1.51-1.469c10.92,0.037,21.84,0.04,32.759-0.003c1.191-0.005,1.58,0.286,1.572,1.53
		c-0.054,8.319-0.029,16.639-0.027,24.959c0,1.579,0.006,1.589,1.619,1.591c6.4,0.004,12.8-0.004,19.2,0.005
		c2.47,0.003,2.214-0.271,2.216,2.276c0.007,7.8,0.025,15.6-0.022,23.399c-0.007,1.157,0.328,1.496,1.484,1.488
		c6.48-0.05,12.96,0.004,19.439-0.049c1.178-0.01,1.48,0.37,1.475,1.505c-0.042,8.12-0.024,16.24-0.021,24.359
		c0.001,1.764,0.006,1.766,1.805,1.766c6.44,0.001,12.88,0.024,19.319-0.022c1.107-0.008,1.43,0.324,1.428,1.429
		c-0.033,14.32-0.033,28.639,0,42.959c0.003,1.134-0.29,1.515-1.471,1.506c-6.439-0.054-12.88-0.028-19.319-0.024
		c-2.354,0.002-2.026-0.125-2.029,2.088c-0.012,8.24-0.03,16.48,0.022,24.719c0.008,1.236-0.37,1.548-1.569,1.537
		c-6.519-0.055-13.04,0-19.559-0.05c-1.156-0.009-1.49,0.331-1.483,1.488c0.046,8.12,0.001,16.24,0.05,24.359
		c0.007,1.2-0.306,1.575-1.542,1.565c-6.639-0.059-13.28-0.03-19.919-0.026c-1.587,0.001-1.594,0.008-1.595,1.613
		c-0.003,7.92-0.001,15.84-0.002,23.76c0,1.737-0.001,1.738-1.794,1.738c-6.28,0-12.56,0-18.84,0c-0.429,0-0.858,0-1.454,0
		c0,0.644,0,1.15,0,1.655c0,8.04,0.001,16.08-0.001,24.12c0,1.584-0.004,1.586-1.588,1.587c-6.8,0.001-13.6,0.03-20.399-0.027
		c-1.232-0.01-1.555,0.373-1.548,1.568c0.046,8,0.024,16,0.023,23.999c0,1.603-0.003,1.607-1.563,1.607
		c-6.36,0.002-12.72,0-19.08,0.001c-1.923,0-1.925,0.003-1.925,1.869c-0.001,8.038,0,16.075-0.001,24.113
		c0,1.857-0.001,1.858-1.919,1.858c-6.48,0-12.96-0.002-19.44,0.002c-1.644,0.001-1.671,0.032-1.672,1.681
		c-0.002,9.48,0.004,18.96-0.011,28.439c-0.001,0.749-0.109,1.504-0.242,2.244c-0.154,0.858,0.308,1.219,0.991,1.535
		c0.595,0.275,1.216,0.577,1.69,1.014c1.439,1.328,2.876,2.671,4.194,4.117c1.163,1.276,2.107,2.752,3.264,4.033
		c0.499,0.553,1.299,0.832,1.952,1.252c0.331,0.213,0.671,0.428,0.951,0.7c1.552,1.501,3.149,2.964,4.607,4.553
		C220.954,354.503,221.777,355.796,222.845,357.218z"/>
</g>
</svg>
