<?xml version="1.0" encoding="utf-8"?>
<!-- Generator: Adobe Illustrator 29.0.0, SVG Export Plug-In . SVG Version: 9.03 Build 54978)  -->
<svg version="1.1" id="Layer_1" xmlns="http://www.w3.org/2000/svg" xmlns:xlink="http://www.w3.org/1999/xlink" x="0px" y="0px"
	 viewBox="0 0 258.156 231.363" style="enable-background:new 0 0 258.156 231.363;" xml:space="preserve">
<g>
	<path style="fill:#00A651;" d="M225.092,84.693c0,0.675,0,1.184,0,1.693c0,8.12-0.022,16.239,0.025,24.359
		c0.007,1.184-0.28,1.591-1.53,1.579c-6.359-0.061-12.719-0.029-19.079-0.028c-1.697,0-1.703,0.003-1.703,1.748
		c-0.003,7.88-0.027,15.76,0.025,23.639c0.008,1.227-0.356,1.558-1.563,1.548c-6.479-0.055-12.959-0.028-19.439-0.024
		c-1.61,0.001-1.614,0.01-1.615,1.577c-0.002,8.32-0.025,16.639,0.026,24.959c0.007,1.224-0.348,1.558-1.559,1.547
		c-6.479-0.057-12.959-0.029-19.439-0.025c-1.49,0.001-1.554,0.06-1.555,1.556c-0.004,10.04,0.007,20.079-0.018,30.119
		c-0.002,0.918,0.3,1.576,0.94,2.213c5.639,5.618,11.277,11.237,16.853,16.917c0.856,0.872,1.393,2.057,2.209,3.296
		c-32.873,0-65.509,0-98.344,0c0.503-0.467,0.916-0.913,1.392-1.277c0.808-0.616,1.741-1.09,2.47-1.784
		c2.027-1.93,3.993-3.926,5.948-5.93c0.929-0.952,2.134-1.71,2.349-3.22c0.042-0.297,0.432-0.556,0.685-0.809
		c2.429-2.436,4.895-4.836,7.268-7.324c0.464-0.486,0.813-1.305,0.816-1.972c0.051-10.08,0.017-20.16,0.059-30.24
		c0.005-1.207-0.352-1.582-1.566-1.572c-6.439,0.052-12.879-0.001-19.319,0.048c-1.138,0.009-1.512-0.299-1.505-1.474
		c0.046-8.159,0.022-16.319,0.028-24.479c0.001-0.767,0.052-1.533,0.079-2.3c-0.739,0.057-1.478,0.163-2.216,0.164
		c-6.4,0.013-12.8-0.02-19.199,0.033c-1.184,0.01-1.474-0.382-1.468-1.512c0.043-7.959,0-15.919,0.046-23.879
		c0.007-1.192-0.31-1.582-1.546-1.57c-6.319,0.059-12.639,0.028-18.959,0.027c-1.619,0-1.621-0.003-1.621-1.672
		c-0.001-7.92-0.002-15.839,0-23.759c0.001-2.616-0.011-2.157-2.224-2.164c-6.44-0.019-12.88-0.029-19.319,0.015
		c-1.117,0.008-1.536-0.265-1.523-1.462c0.059-5.479,0.05-10.959,0.005-16.439c-0.009-1.055,0.321-1.374,1.371-1.367
		c6.559,0.041,13.119,0.018,19.679,0.024c0.727,0.001,1.454,0.053,2.18,0.081c-0.057-0.699-0.161-1.397-0.162-2.096
		c-0.012-7.92,0.009-15.839-0.028-23.759c-0.005-1.05,0.312-1.377,1.367-1.371c6.679,0.04,13.359,0.022,20.039,0.019
		c1.647-0.001,1.675-0.032,1.676-1.677c0.002-8.36,0-16.719,0.002-25.079c0-1.558,0.004-1.561,1.609-1.562
		c10.8-0.001,21.599,0.018,32.399-0.027c1.218-0.005,1.558,0.338,1.551,1.554c-0.051,8.319-0.027,16.639-0.026,24.959
		c0,1.828,0.003,1.832,1.881,1.833c6.4,0.002,12.8,0.027,19.199-0.023c1.155-0.009,1.501,0.333,1.494,1.491
		c-0.044,8.039,0.003,16.079-0.051,24.119c-0.008,1.235,0.383,1.561,1.567,1.555c8.559-0.04,17.119-0.025,25.679-0.012
		c0.631,0.001,1.272,0.075,1.89,0.201c0.712,0.145,0.985-0.028,0.848-0.788c-0.119-0.661-0.213-1.338-0.214-2.008
		c-0.015-7.6-0.01-15.199-0.009-22.799c0-1.732,0.002-1.734,1.682-1.734c6.36-0.001,12.719,0.002,19.079-0.003
		c1.581-0.001,1.586-0.013,1.586-1.623c0.002-8.4,0.019-16.799-0.021-25.199c-0.005-1.119,0.267-1.525,1.461-1.52
		c10.879,0.042,21.759,0.042,32.638,0.001c1.179-0.004,1.477,0.374,1.471,1.508c-0.042,8.359-0.024,16.719-0.022,25.079
		c0,1.745,0.007,1.755,1.717,1.756c6.68,0.003,13.36,0.032,20.039-0.026c1.238-0.011,1.548,0.375,1.541,1.57
		c-0.048,7.999-0.026,15.999-0.024,23.999c0,1.566,0.005,1.576,1.615,1.577c6.6,0.004,13.199,0.001,19.799,0.003
		c1.622,0,1.625,0.003,1.625,1.672c0.001,5.36-0.029,10.72,0.024,16.079c0.011,1.15-0.325,1.508-1.488,1.499
		c-6.599-0.05-13.199-0.024-19.799-0.024C226.352,84.693,225.836,84.693,225.092,84.693z"/>
</g>
</svg>
